<svg xmlns="http://www.w3.org/2000/svg" width="376" height="148" viewBox="0 0 376 148"><defs><linearGradient id="a" x1="-.001%" x2="99.999%" y1="-96.298%" y2="-96.298%"><stop stop-color="#593D09" offset="0%"/><stop stop-color="#7F5200" offset="100%"/></linearGradient><linearGradient id="b" x1="0%" y1="-96.365%" y2="-96.365%"><stop stop-color="#563B09" offset="0%"/><stop stop-color="#291D04" offset="100%"/></linearGradient></defs><g fill="none" fill-rule="evenodd"><path fill="url(#a)" d="M273.222.13c-4.047 0-7.747 1.272-10.625 3.406-2.333-1.11-5.01-1.75-7.844-1.75-9.153 0-16.562 6.58-16.562 14.688 0 1.588.286 3.13.813 4.562-2.582 2.588-4.156 5.962-4.156 9.688 0 1.26.194 2.49.53 3.656-1.483.427-2.856 1.023-4.124 1.78-2.47 1.132-4.604 2.755-6.156 4.782-.003 0 .003.03 0 .03-1.545.58-3 1.222-4.375 1.94-2.618-6.063-7.616-10.46-13.562-11.5-3.08-2.78-6.907-4.44-11.094-4.44-3.958 0-7.635 1.462-10.625 3.97-2.77-1.99-6.01-3.156-9.5-3.156-9.502 0-17.294 8.533-18.155 19.406-1.688-.604-3.488-.937-5.344-.937-5.604 0-10.62 2.965-13.968 7.625-.924-.046-1.87-.094-2.812-.094-2.94 0-5.775.23-8.5.656-3.154-6.4-9.052-10.718-15.813-10.718-7.67 0-14.238 5.55-16.937 13.406-2.87-7.403-9.204-12.563-16.594-12.563-5.575 0-10.56 2.946-13.906 7.563-2.177-1.075-4.553-1.688-7.063-1.688-7.538 0-14.03 5.36-16.812 13-2.703-1.854-5.83-2.937-9.188-2.937-6.773 0-12.694 4.33-15.844 10.75-1.313-.674-2.787-1.063-4.312-1.063C4.783 70.192.004 75.8.004 82.724c0 6.924 4.78 12.53 10.688 12.53 1.794 0 3.516-.492 5-1.405.064.11.154.202.22.31 1.4 4.024 4.533 6.994 8.312 7.657 2.05.936 4.29 1.47 6.625 1.47 3.28 0 6.34-1.038 9-2.813 1.288 5.228 5.405 9.062 10.28 9.062.784 0 1.548-.094 2.283-.28 2.314 1.118 4.885 1.75 7.593 1.75 2.293 0 4.477-.467 6.5-1.282 1.887 1.964 4.37 3.156 7.094 3.156 3.396 0 6.415-1.86 8.375-4.75 4.403 7.92 16.11 13.738 30.156 14.375 1.845 3.768 5.308 6.312 9.282 6.312 3.562 0 6.71-2.05 8.656-5.187 1.012 1.077 2.147 2.115 3.437 3.062.83 5.957 5.245 10.5 10.563 10.5 2.895 0 5.51-1.342 7.437-3.53l.282.03c1.61 4.534 5.422 7.72 9.875 7.72 1.278 0 2.52-.27 3.656-.75 6.333 4.34 15.515 7.06 25.72 7.06 13.525 0 25.214-4.788 30.905-11.78.777-.033 1.552-.092 2.313-.156 2.14.918 4.51 1.47 7.032 1.47 6.913 0 12.827-3.865 15.312-9.345.415-.32.803-.632 1.188-.968.906.14 1.83.25 2.78.25 1.436 0 2.83-.187 4.157-.5 1.845 3.768 5.308 6.313 9.28 6.313 4.318 0 8.03-2.998 9.72-7.313.926.142 1.872.22 2.844.22 3.162 0 6.11-.797 8.625-2.157 1.914 2.1 4.485 3.375 7.313 3.375 4.54 0 8.416-3.323 9.97-8 .446.046.887.093 1.343.093 1.123 0 2.22-.162 3.28-.437 1.783 1.556 3.983 2.47 6.376 2.47 4.41 0 8.207-3.13 9.844-7.595 2.51 1.396 5.468 2.188 8.625 2.188 6.442 0 12.008-3.33 14.75-8.218 1.917.705 4.026 1.093 6.22 1.093 9.152 0 16.562-6.756 16.562-15.093 0-.988-.114-1.94-.312-2.875 1.275-2.14 2-4.582 2-7.188 0-4.866-2.544-9.177-6.47-11.937.382-1.27.595-2.62.595-4 0-8.338-7.44-15.094-16.594-15.094-.81 0-1.596.085-2.374.187.32-1.138.5-2.305.5-3.53 0-8.107-7.41-14.688-16.563-14.688-.264 0-.52.02-.78.03-1.85-3.753-5.318-6.28-9.282-6.28-1.548 0-3.014.4-4.343 1.093-4.103-7.03-14-12.34-26.125-13.75.017-.27.063-.537.063-.812 0-8.106-7.41-14.656-16.563-14.656zm41.72 54.687c.617 1.318 1.466 2.534 2.468 3.625-.92-.122-1.868-.205-2.813-.28.245-1.004.344-2.026.344-3.095 0-.084.003-.166 0-.25zm-36.564 2.97c1.228.107 2.485.16 3.75.187.16.7.42 1.37.688 2.03-1.43-.692-2.965-1.295-4.563-1.843.04-.124.09-.248.125-.374z" transform="translate(-.003 .158)"/><path fill="url(#b)" d="M273.645.228c-4.047 0-7.747 1.272-10.625 3.406-2.333-1.11-5.01-1.75-7.844-1.75-1.396 0-2.736.18-4.03.47 2.924 2.227 5.683 4.555 8.218 6.937 11.3 1.246 20.062 10.26 20.062 21.22 0 2.388-.42 4.698-1.187 6.843 1.644 5.01 2.53 10.165 2.53 15.438v.063c4.45 3.904 7.22 9.45 7.22 15.625 0 11.705-10.003 21.235-22.407 21.406-.378.436-.766.88-1.157 1.313.968 2.144 1.5 4.456 1.5 6.844 0 11.812-12.82 21.376-28.656 21.376-1.41 0-2.802-.073-4.156-.22-2.43 10.343-16.843 18.282-34.25 18.282-6.077 0-11.787-.956-16.75-2.656-3.31 3.805-8.044 6.586-13.47 7.72 6.096 3.304 14.067 5.28 22.814 5.28 13.526 0 25.215-4.79 30.906-11.78.776-.034 1.55-.093 2.312-.158 2.14.918 4.51 1.47 7.032 1.47 6.913 0 12.827-3.865 15.312-9.345.415-.322.803-.633 1.188-.97.906.14 1.83.25 2.78.25 1.436 0 2.83-.187 4.157-.5 1.845 3.77 5.308 6.313 9.28 6.313 4.318 0 8.03-2.998 9.72-7.312.926.143 1.872.22 2.844.22 3.16 0 6.11-.796 8.624-2.157 1.913 2.1 4.484 3.375 7.312 3.375 4.54 0 8.416-3.323 9.97-8 .446.047.887.094 1.343.094 1.122 0 2.22-.163 3.28-.438 1.782 1.556 3.982 2.47 6.375 2.47 4.41 0 8.207-3.13 9.844-7.595 2.51 1.394 5.467 2.187 8.624 2.187 6.44 0 12.007-3.33 14.75-8.22 1.916.706 4.025 1.095 6.22 1.095 9.15 0 16.56-6.756 16.56-15.094 0-.988-.113-1.94-.31-2.875 1.274-2.14 2-4.582 2-7.187 0-4.867-2.545-9.177-6.47-11.938.38-1.27.594-2.62.594-4 0-8.338-7.44-15.094-16.594-15.094-.81 0-1.597.085-2.375.188.318-1.138.5-2.306.5-3.53 0-8.107-7.41-14.69-16.564-14.69-.264 0-.52.022-.78.032-1.85-3.754-5.318-6.28-9.282-6.28-1.55 0-3.015.4-4.344 1.093-4.103-7.03-14-12.34-26.125-13.75.017-.27.063-.538.063-.813 0-8.106-7.41-14.656-16.563-14.656zm41.72 54.688c.617 1.317 1.466 2.534 2.468 3.625-.92-.12-1.868-.205-2.813-.28.245-1.004.344-2.026.344-3.094 0-.084.002-.166 0-.25z" transform="translate(-.003 .158)"/><path fill="#734B02" stroke="#000" stroke-width="1.066" d="M161.417 114.698c1.45 0 2.806.422 3.954 1.133h.1c4.026 0 7.32 3.158 7.52 7.132.008.128 0 .26 0 .39 0 1.088-.24 2.12-.654 3.053.8 1.196 1.266 2.628 1.266 4.177 0 .13.007.26 0 .388-.2 3.975-3.495 7.13-7.52 7.13-.397 0-.785-.028-1.166-.088-1.18.77-2.595 1.222-4.11 1.222-1.467 0-2.84-.417-3.998-1.144-.148.01-.295.01-.445.01-4.154 0-7.53-3.364-7.53-7.518 0-1.095.244-2.13.666-3.066-.805-1.193-1.278-2.618-1.278-4.165 0-4.154 3.376-7.52 7.53-7.52.507 0 1 .05 1.478.145 1.198-.806 2.634-1.277 4.187-1.277z"/><path fill="#3B2906" d="M163.317 117.1c1.45 0 2.805.42 3.954 1.132h.1c4.025 0 7.32 3.157 7.52 7.13.008.13 0 .26 0 .39 0 1.09-.24 2.12-.655 3.054.802 1.196 1.267 2.628 1.267 4.177 0 .13.007.26 0 .39-.202 3.973-3.496 7.13-7.52 7.13-.398 0-.785-.03-1.166-.09-1.18.77-2.595 1.222-4.11 1.222-1.467 0-2.84-.417-4-1.144-.146.01-.294.012-.443.012-4.154 0-7.53-3.365-7.53-7.52 0-1.093.244-2.13.666-3.065-.805-1.193-1.28-2.617-1.28-4.165 0-4.154 3.378-7.52 7.532-7.52.507 0 1 .05 1.477.145 1.198-.807 2.634-1.278 4.187-1.278z"/><path fill="#734B02" stroke="#000" stroke-width="1.066" d="M244.518 114.155c1.45 0 2.805.422 3.954 1.133h.1c4.024 0 7.318 3.157 7.52 7.13.007.13 0 .26 0 .39 0 1.09-.24 2.12-.656 3.054.802 1.196 1.266 2.628 1.266 4.177 0 .13.007.26 0 .388-.2 3.974-3.495 7.13-7.52 7.13-.397 0-.784-.03-1.166-.088-1.18.77-2.594 1.22-4.11 1.22-1.467 0-2.84-.416-3.998-1.143-.147.01-.295.01-.444.01-4.155 0-7.53-3.364-7.53-7.518 0-1.096.244-2.13.665-3.067-.804-1.193-1.278-2.617-1.278-4.165 0-4.154 3.377-7.52 7.53-7.52.508 0 1 .05 1.478.144 1.2-.806 2.635-1.277 4.188-1.277z"/><path fill="#3B2906" d="M246.417 116.556c1.45 0 2.806.422 3.954 1.133h.1c4.026 0 7.32 3.156 7.52 7.13.008.128 0 .26 0 .39 0 1.088-.238 2.12-.654 3.054.8 1.195 1.266 2.627 1.266 4.176 0 .13.007.26 0 .39-.2 3.973-3.495 7.13-7.52 7.13-.397 0-.785-.03-1.166-.09-1.18.77-2.595 1.223-4.11 1.223-1.467 0-2.84-.418-3.998-1.145-.148.01-.295.012-.445.012-4.154 0-7.53-3.366-7.53-7.52 0-1.094.244-2.13.666-3.066-.805-1.193-1.278-2.617-1.278-4.165 0-4.155 3.376-7.52 7.53-7.52.508 0 1 .05 1.478.144 1.198-.807 2.634-1.278 4.187-1.278z"/><path fill="#734B02" stroke="#000" stroke-width="1.645" d="M353.452 67.57c2.238 0 4.328.65 6.1 1.748h.154c6.21 0 11.29 4.87 11.6 11 .012.2 0 .4 0 .6 0 1.68-.37 3.272-1.01 4.713 1.237 1.846 1.953 4.055 1.953 6.444 0 .2.01.402 0 .6-.31 6.132-5.393 11-11.6 11-.615 0-1.213-.045-1.8-.136-1.82 1.188-4.004 1.885-6.34 1.885-2.265 0-4.384-.644-6.17-1.765-.227.014-.455.017-.685.017-6.41 0-11.618-5.192-11.618-11.6 0-1.69.377-3.286 1.028-4.73-1.24-1.84-1.97-4.038-1.97-6.426 0-6.41 5.208-11.602 11.617-11.602.783 0 1.542.076 2.28.223 1.848-1.243 4.064-1.97 6.46-1.97z"/><path fill="#3B2906" d="M356.382 71.275c2.24 0 4.328.65 6.1 1.748h.155c6.208 0 11.29 4.87 11.6 11 .01.198 0 .4 0 .6 0 1.68-.37 3.272-1.01 4.713 1.236 1.845 1.953 4.053 1.953 6.443 0 .2.01.4 0 .6-.31 6.13-5.392 11-11.6 11-.614 0-1.212-.046-1.8-.138-1.82 1.19-4.003 1.885-6.34 1.885-2.264 0-4.383-.644-6.17-1.765-.226.014-.454.018-.684.018-6.41 0-11.618-5.192-11.618-11.6 0-1.69.377-3.287 1.028-4.73-1.24-1.84-1.97-4.04-1.97-6.427 0-6.41 5.208-11.6 11.617-11.6.782 0 1.542.076 2.28.222 1.848-1.244 4.063-1.97 6.46-1.97z"/><path fill="#734B02" stroke="#000" stroke-width="1.131" d="M303.21 47.096c1.538 0 2.975.447 4.193 1.202h.106c4.266 0 7.76 3.347 7.973 7.56.007.137 0 .276 0 .414 0 1.154-.255 2.248-.695 3.238.85 1.27 1.342 2.787 1.342 4.43 0 .137.007.275 0 .41-.213 4.216-3.706 7.563-7.973 7.563-.422 0-.833-.032-1.237-.095-1.252.817-2.752 1.296-4.358 1.296-1.556 0-3.013-.443-4.24-1.213-.156.01-.313.013-.47.013-4.406 0-7.987-3.57-7.987-7.974 0-1.16.26-2.26.707-3.252-.852-1.265-1.355-2.775-1.355-4.417 0-4.404 3.58-7.972 7.986-7.972.538 0 1.06.052 1.566.153 1.27-.854 2.793-1.354 4.44-1.354z"/><path fill="#3B2906" d="M306.902 51.32c1.538 0 2.974.447 4.193 1.2h.106c4.268 0 7.76 3.348 7.974 7.563.007.136 0 .274 0 .412 0 1.155-.254 2.25-.695 3.24.85 1.267 1.342 2.785 1.342 4.428 0 .137.007.276 0 .412-.214 4.214-3.706 7.56-7.974 7.56-.42 0-.832-.03-1.236-.093-1.252.817-2.752 1.296-4.358 1.296-1.556 0-3.013-.443-4.24-1.214-.156.01-.313.012-.47.012-4.407 0-7.987-3.568-7.987-7.973 0-1.16.26-2.26.707-3.25-.853-1.266-1.355-2.777-1.355-4.418 0-4.405 3.58-7.974 7.985-7.974.537 0 1.06.054 1.566.154 1.272-.855 2.795-1.354 4.442-1.354z" opacity=".802"/><path fill="#734B02" stroke="#000" stroke-width="1.066" d="M31.487 80.607c1.45 0 2.805.422 3.954 1.133h.1c4.026 0 7.32 3.157 7.52 7.13.008.13 0 .26 0 .39 0 1.09-.24 2.12-.654 3.054.8 1.196 1.266 2.628 1.266 4.177 0 .13.007.26 0 .39-.202 3.974-3.495 7.13-7.52 7.13-.398 0-.785-.03-1.166-.09-1.18.772-2.595 1.223-4.11 1.223-1.467 0-2.84-.417-4-1.144-.146.008-.293.01-.443.01-4.154 0-7.53-3.365-7.53-7.52 0-1.094.244-2.13.666-3.065-.805-1.193-1.28-2.618-1.28-4.165 0-4.155 3.378-7.52 7.532-7.52.507 0 1 .05 1.477.144 1.198-.806 2.634-1.277 4.187-1.277z"/><path fill="#3B2906" d="M33.387 83.008c1.45 0 2.805.422 3.954 1.133h.1c4.025 0 7.32 3.158 7.52 7.132.008.128 0 .26 0 .39 0 1.088-.24 2.12-.655 3.053.802 1.196 1.267 2.628 1.267 4.177 0 .13.007.26 0 .39-.202 3.973-3.496 7.13-7.52 7.13-.398 0-.785-.03-1.166-.09-1.18.77-2.595 1.222-4.11 1.222-1.468 0-2.84-.417-4-1.144-.146.01-.294.01-.443.01-4.154 0-7.53-3.364-7.53-7.518 0-1.094.244-2.13.665-3.066-.803-1.193-1.277-2.617-1.277-4.165 0-4.153 3.378-7.52 7.532-7.52.507 0 1 .05 1.477.145 1.198-.806 2.634-1.277 4.187-1.277z"/><path fill="#734B02" stroke="#000" stroke-width="1.066" d="M108.648 85.64c1.45 0 2.805.42 3.954 1.132h.1c4.024 0 7.318 3.157 7.52 7.13.007.13 0 .26 0 .39 0 1.09-.24 2.12-.656 3.054.802 1.196 1.266 2.628 1.266 4.177 0 .13.008.26 0 .39-.2 3.973-3.495 7.13-7.52 7.13-.397 0-.784-.03-1.165-.09-1.18.77-2.595 1.222-4.11 1.222-1.468 0-2.84-.417-4-1.144-.146.01-.294.013-.443.013-4.154 0-7.53-3.366-7.53-7.52 0-1.094.244-2.13.665-3.066-.804-1.193-1.278-2.617-1.278-4.165 0-4.154 3.377-7.52 7.53-7.52.508 0 1 .05 1.478.145 1.2-.807 2.635-1.278 4.188-1.278z"/><path fill="#3B2906" fill-opacity=".507" d="M110.547 88.04c1.45 0 2.806.422 3.955 1.133h.1c4.024 0 7.318 3.157 7.52 7.13.006.13 0 .26 0 .39 0 1.09-.24 2.12-.656 3.055.802 1.196 1.266 2.627 1.266 4.176 0 .13.007.26 0 .39-.2 3.973-3.495 7.13-7.52 7.13-.397 0-.785-.03-1.166-.09-1.18.77-2.595 1.223-4.11 1.223-1.467 0-2.84-.418-3.998-1.144-.147.01-.295.01-.445.01-4.154 0-7.53-3.365-7.53-7.52 0-1.093.244-2.13.666-3.065-.805-1.193-1.278-2.617-1.278-4.165 0-4.154 3.376-7.52 7.53-7.52.508 0 1 .05 1.478.145 1.198-.807 2.634-1.278 4.187-1.278z"/><path fill="#734B02" stroke="#000" stroke-width=".848" d="M273.038 76.304c1.463 0 2.828.265 3.986.71h.1c4.06 0 7.38 1.98 7.582 4.473.007.08 0 .163 0 .244 0 .684-.24 1.33-.66 1.917.808.75 1.276 1.648 1.276 2.62 0 .08.007.162 0 .243-.203 2.493-3.524 4.472-7.58 4.472-.402 0-.792-.018-1.177-.055-1.19.483-2.616.766-4.143.766-1.48 0-2.864-.262-4.03-.718-.15.006-.298.007-.45.007-4.187 0-7.59-2.11-7.59-4.716 0-.686.245-1.336.67-1.923-.81-.748-1.287-1.64-1.287-2.612 0-2.604 3.404-4.715 7.592-4.715.51 0 1.007.03 1.49.09 1.208-.505 2.655-.8 4.22-.8z"/><path fill="#3B2906" fill-opacity=".507" d="M274.953 77.81c1.463 0 2.828.264 3.987.71h.1c4.058 0 7.378 1.98 7.582 4.473.007.08 0 .162 0 .244 0 .683-.242 1.33-.66 1.916.807.75 1.275 1.647 1.275 2.62 0 .08.007.162 0 .243-.203 2.492-3.523 4.472-7.58 4.472-.402 0-.792-.018-1.176-.056-1.19.483-2.615.767-4.143.767-1.48 0-2.864-.263-4.03-.72-.15.007-.298.008-.45.008-4.187 0-7.59-2.11-7.59-4.716 0-.686.245-1.336.67-1.923-.81-.75-1.287-1.642-1.287-2.613 0-2.606 3.404-4.716 7.592-4.716.51 0 1.008.032 1.49.09 1.208-.504 2.655-.8 4.22-.8z"/><path fill="#734B02" stroke="#000" stroke-width=".848" d="M81.75 46.153c1.463 0 2.828.264 3.986.71h.1c4.058 0 7.38 1.98 7.582 4.473.007.08 0 .162 0 .244 0 .683-.242 1.33-.66 1.916.807.75 1.276 1.647 1.276 2.62 0 .08.007.162 0 .243-.203 2.49-3.524 4.47-7.58 4.47-.402 0-.793-.018-1.177-.055-1.19.484-2.616.767-4.143.767-1.48 0-2.865-.262-4.032-.718-.148.006-.297.007-.448.007-4.188 0-7.592-2.11-7.592-4.715 0-.686.247-1.336.672-1.923-.81-.748-1.288-1.64-1.288-2.612 0-2.606 3.404-4.716 7.593-4.716.51 0 1.006.03 1.488.09 1.208-.505 2.656-.8 4.222-.8z"/><path fill="#3B2906" fill-opacity=".507" d="M83.665 47.66c1.463 0 2.828.263 3.986.71h.102c4.057 0 7.378 1.98 7.58 4.472.008.08 0 .162 0 .244 0 .683-.24 1.33-.66 1.916.81.75 1.277 1.647 1.277 2.62 0 .08.006.162 0 .243-.204 2.492-3.525 4.472-7.582 4.472-.4 0-.792-.02-1.176-.056-1.19.484-2.616.768-4.143.768-1.48 0-2.865-.262-4.032-.718-.15.006-.298.007-.448.007-4.188 0-7.593-2.11-7.593-4.716 0-.685.247-1.335.672-1.922-.81-.748-1.288-1.642-1.288-2.612 0-2.606 3.404-4.716 7.592-4.716.51 0 1.007.03 1.49.09 1.207-.506 2.655-.8 4.22-.8z"/><path fill="#734B02" stroke="#000" stroke-width="1.306" d="M206.58 62.67c2.255 0 4.36.41 6.143 1.096h.156c6.25 0 11.366 3.05 11.68 6.89.01.125 0 .25 0 .376 0 1.053-.373 2.05-1.02 2.952 1.246 1.156 1.968 2.54 1.968 4.036 0 .125.01.252 0 .376-.313 3.84-5.43 6.89-11.68 6.89-.618 0-1.22-.028-1.812-.085-1.833.745-4.03 1.18-6.384 1.18-2.28 0-4.413-.402-6.21-1.104-.23.01-.46.01-.69.01-6.454 0-11.7-3.252-11.7-7.266 0-1.057.38-2.058 1.036-2.962-1.248-1.153-1.984-2.53-1.984-4.025 0-4.015 5.245-7.267 11.698-7.267.788 0 1.552.048 2.295.14 1.86-.78 4.092-1.235 6.504-1.235z"/><path fill="#3B2906" fill-opacity=".507" d="M209.532 64.992c2.254 0 4.358.407 6.142 1.094h.156c6.25 0 11.367 3.05 11.68 6.89.01.125 0 .25 0 .377 0 1.052-.372 2.05-1.018 2.95 1.245 1.157 1.967 2.54 1.967 4.037 0 .126.01.252 0 .376-.314 3.84-5.43 6.89-11.682 6.89-.617 0-1.22-.028-1.81-.085-1.834.745-4.032 1.18-6.385 1.18-2.28 0-4.413-.402-6.21-1.104-.23.01-.46.01-.69.01-6.454 0-11.7-3.252-11.7-7.266 0-1.057.38-2.058 1.036-2.962-1.25-1.153-1.985-2.53-1.985-4.025 0-4.015 5.245-7.267 11.698-7.267.788 0 1.552.048 2.295.14 1.86-.78 4.092-1.234 6.504-1.234z"/></g></svg>