<svg xmlns="http://www.w3.org/2000/svg" width="197" height="276" viewBox="0 0 197 276"><defs><linearGradient id="a" x1="-2.912%" x2="102.931%" y1="1913.752%" y2="1913.752%"><stop stop-color="#F1AAC2" offset="0%"/><stop stop-color="#E5638F" offset="100%"/></linearGradient><linearGradient id="b" x1="102.912%" x2="-2.931%" y1="1911.469%" y2="1911.469%"><stop stop-color="#F1AAC2" offset="0%"/><stop stop-color="#E5638F" offset="100%"/></linearGradient><linearGradient id="c" x1="27.36%" x2="90.184%" y1="18.787%" y2="90.34%"><stop stop-color="#FFCEAE" offset="0%"/><stop stop-color="#FFB280" offset="100%"/></linearGradient><linearGradient id="d" x1="-8.611%" x2="108.556%" y1="1770.326%" y2="1770.326%"><stop stop-color="#8A8A8A" offset="0%"/><stop stop-color="#F1F1F1" offset="28.57%"/><stop stop-color="#FFF" offset="100%"/></linearGradient><linearGradient id="e" x1="-8.633%" x2="108.534%" y1="1772.183%" y2="1772.183%"><stop stop-color="#8A8A8A" offset="0%"/><stop stop-color="#F1F1F1" offset="28.57%"/><stop stop-color="#FFF" offset="100%"/></linearGradient></defs><g fill="none" fill-rule="evenodd"><path fill="#333" stroke="#000" stroke-width="5.81" d="M98.092 2.927c-.245 0-.575.038-.84.042v.04c-14.626.17-50.182 3.266-63.26 35.137-6.52-8.665-.007.002-21.032-19.94 0 0-26.38 25.847 9.613 44.203C35.075 178.403 9.603 222.976 83.61 221.382c4.216-.09 8.844-.03 13.642.084h.126l2.183.042v-.084c4.804-.113 9.424-.175 13.644-.084 74.005 1.594 48.535-42.98 61.037-158.972 35.994-18.356 9.614-44.203 9.614-44.203-21.026 19.942-14.513 11.275-21.03 19.94C149.3 5.158 111.693 2.927 98.09 2.927z"/><path fill="#93939F" stroke="#000" stroke-width="2.705" d="M169.767 196.17c0 42.53-31.198 77.006-69.682 77.006S30.403 238.7 30.403 196.17c0-42.527 31.198-77.003 69.682-77.003s69.682 34.476 69.682 77.004z"/><path fill="#7F7F8D" d="M99.044 120.06c37.428 1.33 67.418 35.263 67.418 76.947 0 39.342-26.697 71.758-61.163 76.4 24.047-6.713 42.23-38.118 42.23-75.854 0-40.954-21.404-74.458-48.486-77.03v-.462z"/><path fill="#C1C1C8" d="M98.863 118.92c-37.427 1.332-67.417 35.263-67.417 76.947 0 39.342 26.696 71.76 61.163 76.4-24.05-6.713-42.232-38.117-42.232-75.854 0-40.953 21.404-74.458 48.485-77.03v-.462z"/><path fill="#FFF" stroke="#000" stroke-width="5.484" d="M72.836 31.465c-17.275 0-31.304 16.22-31.304 36.208 0 19.99 14.03 36.206 31.304 36.206 10.152 0 19.16-5.607 24.88-14.284 5.716 8.682 14.744 14.283 24.902 14.283 17.27 0 31.3-16.222 31.3-36.207 0-19.984-14.03-36.208-31.3-36.208-10.156 0-19.186 5.605-24.903 14.285-5.72-8.674-14.73-14.285-24.88-14.285z"/><path fill="#A5A5A5" d="M138.19 34.965c.382 2.297.563 4.684.563 7.11 0 20.64-14.464 37.373-32.3 37.373-10.49 0-19.85-5.774-25.754-14.74-5.907 8.96-15.182 14.74-25.667 14.74-5.202 0-10.126-1.416-14.48-3.945 2.872 17.247 15.993 30.306 31.735 30.306 10.486 0 19.804-5.825 25.71-14.786 5.905 8.967 15.22 14.785 25.71 14.785 17.837 0 32.344-16.777 32.344-37.418 0-14.626-7.28-27.282-17.862-33.427z" opacity=".337"/><path fill="#000" stroke="#000" stroke-width="3.476" d="M95.736 70.123c0 5.004-4.06 9.062-9.064 9.062-5.004 0-9.062-4.058-9.062-9.062 0-5.006 4.06-9.064 9.062-9.064 5.007 0 9.064 4.057 9.064 9.063z"/><path fill="#FFF" d="M85.754 66.95c0 1.296-1.053 2.348-2.35 2.348-1.298 0-2.35-1.052-2.35-2.35 0-1.297 1.052-2.35 2.35-2.35 1.297 0 2.35 1.053 2.35 2.35z"/><path fill="#000" stroke="#000" stroke-width="3.476" d="M118.687 70.123c0 5.004-4.057 9.062-9.06 9.062-5.008 0-9.065-4.058-9.065-9.062 0-5.006 4.057-9.064 9.064-9.064 5.006 0 9.06 4.057 9.06 9.063z"/><path fill="#FFF" d="M108.704 66.95c0 1.296-1.052 2.348-2.35 2.348-1.297 0-2.35-1.052-2.35-2.35 0-1.297 1.053-2.35 2.35-2.35 1.298 0 2.35 1.053 2.35 2.35z"/><path fill="url(#a)" stroke="#000" stroke-width="1.343" d="M7.263 25.594S-6.382 41.41 17.337 56.404c3.808-3.69 4.353-4.34 8.832-7.893v-2.854c-5.427-2.96-2.922-6.83-11.772-17.832l-7.135-2.23z" transform="translate(3.323 2.017)"/><path fill="url(#b)" stroke="#000" stroke-width="1.343" d="M184.264 26.297s13.645 15.815-10.074 30.81c-3.808-3.688-4.353-4.34-8.832-7.893V46.36c5.427-2.96 2.922-6.83 11.77-17.832l7.136-2.23z" transform="translate(3.323 2.017)"/><path fill="#7F7F8D" d="M90.03 122.314c37.428 1.33 67.418 35.262 67.418 76.947 0 39.342-26.697 71.76-61.163 76.4 24.048-6.713 42.23-38.117 42.23-75.854 0-40.953-21.403-74.458-48.484-77.03v-.462z"/><path fill="url(#c)" stroke="#000" stroke-width="2.687" d="M95.053 91.07c-11.546 0-21.503 5.69-26.07 13.89-10.53 3.25-17.294 8.354-17.294 14.078 0 1.577.545 3.12 1.51 4.576-.725 1.69-1.09 3.448-1.09 5.253 0 13.043 19.998 23.61 44.664 23.61s44.665-10.567 44.665-23.61c0-2.076-.52-4.093-1.47-6.01.67-1.227 1.05-2.513 1.05-3.82 0-6.267-8.122-11.777-20.402-14.945-4.768-7.734-14.428-13.023-25.565-13.023z" transform="translate(3.323 2.017)"/><path fill="#000" d="M114.726 100.97c0 8.71-7.062 15.773-15.773 15.773-8.71 0-15.773-7.062-15.773-15.773 0-8.71 7.062-15.773 15.773-15.773 8.71 0 15.773 7.062 15.773 15.773z"/><path fill="url(#d)" stroke="#000" stroke-width="3.045" d="M76.485 132.95h17.878v27.243H76.485V132.95z" transform="translate(3.323 2.017)"/><path fill="url(#e)" stroke="#000" stroke-width="3.045" d="M94.58 132.444h17.88v27.243H94.58v-27.243z" transform="translate(3.323 2.017)"/><path stroke="#000" stroke-width="5.373" d="M62.9 125.756c25.974 14.497 50.263 12.157 73.232-3.38"/></g></svg>